<svg width="30" height="30" viewBox="0 0 30 30" fill="none" xmlns="http://www.w3.org/2000/svg">
<path d="M10.5122 11.6667L11.0108 11.7032C11.021 11.5646 10.973 11.428 10.8784 11.3263C10.7838 11.2245 10.6511 11.1667 10.5122 11.1667V11.6667ZM12.5 15.7422H13C13 15.5754 12.9168 15.4195 12.7781 15.3267L12.5 15.7422ZM11.533 19.2763L11.3956 18.7955L11.3956 18.7955L11.533 19.2763ZM9.82686 19.7638L9.96422 20.2445L9.96422 20.2445L9.82686 19.7638ZM5.5 25.5H5C5 25.7762 5.22386 26 5.5 26V25.5ZM24.5 25.5V26C24.7761 26 25 25.7762 25 25.5H24.5ZM20.1731 19.7638L20.0358 20.2445L20.0358 20.2445L20.1731 19.7638ZM18.467 19.2763L18.6044 18.7955L18.6044 18.7955L18.467 19.2763ZM17.5 15.7422L17.2219 15.3267C17.0832 15.4195 17 15.5754 17 15.7422H17.5ZM19.4878 11.6667V11.1667C19.3489 11.1667 19.2162 11.2245 19.1216 11.3263C19.027 11.428 18.979 11.5646 18.9892 11.7032L19.4878 11.6667ZM19.5 11.6667V12.1667C19.7761 12.1667 20 11.9428 20 11.6667H19.5ZM10.5 11.6667H10C10 11.9428 10.2239 12.1667 10.5 12.1667V11.6667ZM11 12C11 11.9001 11.0037 11.8011 11.0108 11.7032L10.0135 11.6302C10.0045 11.7524 10 11.8757 10 12H11ZM12.7781 15.3267C11.7049 14.6083 11 13.3864 11 12H10C10 13.734 10.8831 15.2616 12.2219 16.1577L12.7781 15.3267ZM13 17V15.7422H12V17H13ZM12 17V17.9943H13V17H12ZM12 17.9943C12 18.3663 11.7534 18.6933 11.3956 18.7955L11.6703 19.7571C12.4574 19.5322 13 18.8128 13 17.9943H12ZM11.3956 18.7955L9.6895 19.283L9.96422 20.2445L11.6703 19.7571L11.3956 18.7955ZM9.6895 19.283C6.91372 20.0761 5 22.6132 5 25.5H6C6 23.0596 7.61775 20.9149 9.96422 20.2445L9.6895 19.283ZM5.5 26H24.5V25H5.5V26ZM25 25.5C25 22.6132 23.0863 20.0761 20.3105 19.283L20.0358 20.2445C22.3823 20.9149 24 23.0596 24 25.5H25ZM20.3105 19.283L18.6044 18.7955L18.3297 19.7571L20.0358 20.2445L20.3105 19.283ZM18.6044 18.7955C18.2466 18.6933 18 18.3663 18 17.9943H17C17 18.8128 17.5426 19.5322 18.3297 19.7571L18.6044 18.7955ZM18 17.9943V17H17V17.9943H18ZM17 15.7422V17H18V15.7422H17ZM19 12C19 13.3864 18.2951 14.6083 17.2219 15.3267L17.7781 16.1577C19.1169 15.2616 20 13.734 20 12H19ZM18.9892 11.7032C18.9963 11.8011 19 11.9001 19 12H20C20 11.8757 19.9955 11.7524 19.9865 11.6302L18.9892 11.7032ZM19.5 11.1667H19.4878V12.1667H19.5V11.1667ZM19 9V11.6667H20V9H19ZM15 5C17.2091 5 19 6.79086 19 9H20C20 6.23858 17.7614 4 15 4V5ZM11 9C11 6.79086 12.7909 5 15 5V4C12.2386 4 10 6.23858 10 9H11ZM11 11.6667V9H10V11.6667H11ZM10.5122 11.1667H10.5V12.1667H10.5122V11.1667Z" fill="#777777"/>
</svg>
