<?xml version="1.0" encoding="utf-8"?>
<!-- Generator: Adobe Illustrator 18.0.0, SVG Export Plug-In . SVG Version: 6.00 Build 0)  -->
<!DOCTYPE svg PUBLIC "-//W3C//DTD SVG 1.1//EN" "http://www.w3.org/Graphics/SVG/1.1/DTD/svg11.dtd">
<svg version="1.1" id="Layer_1" xmlns="http://www.w3.org/2000/svg" xmlns:xlink="http://www.w3.org/1999/xlink" x="0px" y="0px"
	 viewBox="0 0 64 64" enable-background="new 0 0 64 64" xml:space="preserve">
<g>
	<g>
		<g>
			<path fill="#316CFF" d="M32,0c17.7,0,32,14.3,32,32S49.7,64,32,64S0,49.7,0,32S14.3,0,32,0z"/>
		</g>
	</g>
	<g>
		<g>
			<path fill="#F26DA0" d="M53.2,17.1c1.1,1.1,0.9,2.8-0.2,3.9l-4,4L38.9,15l4.1-4c1.1-1.1,2.8-1.1,3.9,0L53.2,17.1z"/>
		</g>
	</g>
	<g>
		<g>
			<polygon fill="#C1DCF7" points="44.5,24.5 39.5,19.5 36.9,17 39.9,14 50,24 47,27 			"/>
		</g>
	</g>
	<g>
		<g>
			<polygon fill="#9FBAD1" points="49,25 48,26 38,15.9 38.9,15 			"/>
		</g>
	</g>
	<g>
		<g>
			<polygon fill="#E8C6AA" points="20,49 18,47 15,44 11,43 11,48.9 13.1,50.9 15.1,53 21,53 			"/>
		</g>
	</g>
	<g>
		<g>
			<polygon points="15.1,53 11,53 11,48.9 13.1,50.9 			"/>
		</g>
	</g>
	<g>
		<g>
			<polygon fill="#F4A845" points="36.9,17 39.5,19.5 47,27 21,53 20,49 15,44 11,43 			"/>
		</g>
	</g>
	<g>
		<g>
			<polygon fill="#F7D854" points="39.5,19.5 44.5,24.5 20,49 15.1,48.9 15,44 			"/>
		</g>
	</g>
</g>
</svg>
