<svg width="20" height="20" viewBox="0 0 20 20" fill="none" xmlns="http://www.w3.org/2000/svg">
<path d="M8.97682 2.24012C9.54104 1.80127 10.317 1.77384 10.9077 2.15783L11.0232 2.24012L18.0097 7.67404C18.6112 8.14185 18.3182 9.08386 17.5944 9.16155L17.4976 9.16667H16.6667V15.8333C16.6667 16.712 15.9868 17.4318 15.1245 17.4954L15.0001 17.5H5.00003C4.1214 17.5 3.40156 16.8201 3.33794 15.9577L3.33337 15.8333V9.16667H2.50247C1.74133 9.16667 1.39288 8.24368 1.91699 7.73758L1.99033 7.67404L8.97682 2.24012ZM10.0001 3.55571L4.68787 7.68739C4.87832 7.8417 5.00003 8.07748 5.00003 8.34167V15.8333H7.50003V11.6667C7.50003 10.2859 8.61932 9.16667 10.0001 9.16667C11.3807 9.16667 12.5001 10.2859 12.5001 11.6667V15.8333H15.0001V8.34167C15.0001 8.07746 15.1217 7.84169 15.3122 7.68739L10.0001 3.55571ZM10.0001 10.8333C9.53982 10.8333 9.16674 11.2064 9.16674 11.6667V15.8333H10.8334V11.6667C10.8334 11.2064 10.4602 10.8333 10.0001 10.8333Z" fill="#8491A5"/>
</svg>
