<svg width="20" height="20" viewBox="0 0 20 20" fill="none" xmlns="http://www.w3.org/2000/svg">
<path fill-rule="evenodd" clip-rule="evenodd" d="M8.30397 2.34068C7.99656 2.1194 7.56297 2.01592 7.13655 2.17194C6.22216 2.5065 5.38336 2.99633 4.65191 3.609C4.30434 3.90013 4.17722 4.3267 4.21494 4.70326C4.27776 5.33059 4.16704 5.9363 3.86561 6.45839C3.56403 6.98074 3.09452 7.37963 2.51944 7.63887C2.17381 7.79468 1.86727 8.11894 1.78958 8.56675C1.70871 9.033 1.66666 9.51192 1.66666 10.0001C1.66666 10.4882 1.70871 10.9672 1.78959 11.4333C1.86728 11.8812 2.17382 12.2054 2.51945 12.3613C3.09452 12.6205 3.56403 13.0194 3.86561 13.5418C4.16703 14.0638 4.27776 14.6695 4.21494 15.2968C4.17723 15.6734 4.30435 16.1 4.65191 16.3911C5.38334 17.0038 6.22211 17.4936 7.13647 17.8281C7.56292 17.9842 7.99653 17.8807 8.30394 17.6593C8.81616 17.2907 9.39657 17.0833 9.99999 17.0833C10.6034 17.0833 11.1838 17.2907 11.6961 17.6593C12.0035 17.8807 12.4371 17.9842 12.8635 17.8281C13.7778 17.4936 14.6166 17.0038 15.348 16.3912C15.6956 16.1 15.8227 15.6734 15.785 15.2968C15.7222 14.6695 15.8328 14.0638 16.1342 13.5418C16.4358 13.0194 16.9054 12.6205 17.4805 12.3613C17.8262 12.2054 18.1327 11.8812 18.2104 11.4333C18.2912 10.9672 18.3333 10.4882 18.3333 10.0001C18.3333 9.512 18.2912 9.03309 18.2104 8.56692C18.1327 8.11907 17.8262 7.79479 17.4805 7.63899C16.9054 7.37974 16.4358 6.98085 16.1342 6.4585C15.8328 5.93639 15.7222 5.33064 15.785 4.70327C15.8227 4.32669 15.6956 3.90009 15.348 3.60894C14.6166 2.9963 13.7778 2.50649 12.8634 2.17194C12.437 2.01593 12.0034 2.1194 11.696 2.34068C11.1838 2.70936 10.6034 2.91669 9.99999 2.91669C9.39657 2.91669 8.81616 2.70936 8.30397 2.34068ZM7.49999 10C7.49999 8.61925 8.61924 7.5 9.99999 7.5C11.3807 7.5 12.5 8.61925 12.5 10C12.5 11.3808 11.3807 12.5 9.99999 12.5C8.61924 12.5 7.49999 11.3808 7.49999 10Z" fill="white" fill-opacity="0.5"/>
</svg>
