<svg width="20" height="20" viewBox="0 0 14 18" fill="none" xmlns="http://www.w3.org/2000/svg">
<path d="M9.50001 0.666687C10.0695 0.666687 10.5722 0.952273 10.8728 1.38803L10.9437 1.50002H12C12.8787 1.50002 13.5985 2.17992 13.6621 3.0423L13.6667 3.16669V13.1667C13.6667 15.4073 11.8981 17.2349 9.68075 17.3295L9.50001 17.3334H2.00001C1.12137 17.3334 0.401539 16.6535 0.337915 15.7911L0.333344 15.6667V3.16669C0.333344 2.28805 1.01324 1.56822 1.87562 1.50459L2.00001 1.50002H3.05631C3.32232 1.04017 3.80173 0.719216 4.35912 0.672558L4.50001 0.666687H9.50001ZM2.83334 3.16669H2.00001V15.6667H9.50001C10.8808 15.6667 12 14.5474 12 13.1667V3.16669H11.1667C11.1667 4.08716 10.4205 4.83335 9.50001 4.83335H4.50001C3.57954 4.83335 2.83334 4.08716 2.83334 3.16669ZM7.00001 10.6667C7.46026 10.6667 7.83334 11.0398 7.83334 11.5C7.83334 11.9274 7.51165 12.2796 7.0972 12.3277L7.00001 12.3334H4.50001C4.03978 12.3334 3.66668 11.9603 3.66668 11.5C3.66668 11.0726 3.98838 10.7204 4.40283 10.6723L4.50001 10.6667H7.00001ZM9.50001 7.33335C9.96026 7.33335 10.3333 7.70644 10.3333 8.16669C10.3333 8.62694 9.96026 9.00002 9.50001 9.00002H4.50001C4.03978 9.00002 3.66668 8.62694 3.66668 8.16669C3.66668 7.70644 4.03978 7.33335 4.50001 7.33335H9.50001ZM9.50001 2.33335H4.50001V3.16669H9.50001V2.33335Z" fill="#8491A5"/>
</svg>
