<svg width="24" height="24" viewBox="0 0 24 24" fill="none" xmlns="http://www.w3.org/2000/svg">
<path fill-rule="evenodd" clip-rule="evenodd" d="M8.29998 16.1586L4.71 18.3L5.32629 14.6239C3.83281 13.3921 3 11.6857 3 9.8C3 6.04446 6.3033 3 11.55 3C16.7967 3 20.1 6.04446 20.1 9.8C20.1 13.5555 16.7967 16.6 11.55 16.6C10.3617 16.6 9.2731 16.4438 8.29998 16.1586Z" stroke="black" stroke-width="2" stroke-linecap="round" stroke-linejoin="round"/>
<path d="M19.7 12C20.537 12.8311 21 13.9323 21 15.1402C21 16.4401 20.4637 17.6165 19.502 18.4657L19.8989 21L17.5872 19.5237C16.9605 19.7204 16.2595 19.828 15.4944 19.828C12.7385 19.828 10.8153 18.4316 10.2 16.5117V16.5117" stroke="black" stroke-width="2" stroke-linecap="round" stroke-linejoin="round"/>
</svg>
