<svg width="20" height="20" viewBox="0 0 20 20" fill="none" xmlns="http://www.w3.org/2000/svg">
<path fill-rule="evenodd" clip-rule="evenodd" d="M8.7499 1.66656C4.83788 1.66656 1.66656 4.83788 1.66656 8.7499C1.66656 12.6619 4.83788 15.8332 8.7499 15.8332C10.4056 15.8332 11.9287 15.2651 13.1348 14.3132L16.1784 17.3568C16.5038 17.6822 17.0315 17.6822 17.3569 17.3568C17.6823 17.0314 17.6823 16.5037 17.3569 16.1783L14.3133 13.1347C15.2651 11.9286 15.8332 10.4056 15.8332 8.7499C15.8332 4.83788 12.6619 1.66656 8.7499 1.66656ZM3.33323 8.7499C3.33323 5.75836 5.75836 3.33323 8.7499 3.33323C11.7415 3.33323 14.1666 5.75836 14.1666 8.7499C14.1666 11.7415 11.7415 14.1666 8.7499 14.1666C5.75836 14.1666 3.33323 11.7415 3.33323 8.7499Z" fill="#828282"/>
</svg>
